<svg xmlns="http://www.w3.org/2000/svg" viewBox="0 0 1600 900" role="img" aria-label=""><defs>
  <radialGradient id="ag" cx="50%" cy="50%" r="50%">
    <stop offset="0" stop-color="#dbe9ff" stop-opacity="0.9"/><stop offset="100%" stop-color="#f4f7fc" stop-opacity="0"/>
  </radialGradient></defs><rect width="1600" height="900" fill="#f4f7fc"/><circle cx="1380" cy="180" r="520" fill="url(#ag)"/><g fill="#b9cdf0" opacity="0.45"><circle cx="40" cy="40" r="1.5"/><circle cx="40" cy="92" r="1.5"/><circle cx="40" cy="144" r="1.5"/><circle cx="40" cy="196" r="1.5"/><circle cx="40" cy="248" r="1.5"/><circle cx="40" cy="300" r="1.5"/><circle cx="40" cy="352" r="1.5"/><circle cx="40" cy="404" r="1.5"/><circle cx="40" cy="456" r="1.5"/><circle cx="40" cy="508" r="1.5"/><circle cx="40" cy="560" r="1.5"/><circle cx="40" cy="612" r="1.5"/><circle cx="40" cy="664" r="1.5"/><circle cx="40" cy="716" r="1.5"/><circle cx="40" cy="768" r="1.5"/><circle cx="40" cy="820" r="1.5"/><circle cx="40" cy="872" r="1.5"/><circle cx="92" cy="40" r="1.5"/><circle cx="92" cy="92" r="1.5"/><circle cx="92" cy="144" r="1.5"/><circle cx="92" cy="196" r="1.5"/><circle cx="92" cy="248" r="1.5"/><circle cx="92" cy="300" r="1.5"/><circle cx="92" cy="352" r="1.5"/><circle cx="92" cy="404" r="1.5"/><circle cx="92" cy="456" r="1.5"/><circle cx="92" cy="508" r="1.5"/><circle cx="92" cy="560" r="1.5"/><circle cx="92" cy="612" r="1.5"/><circle cx="92" cy="664" r="1.5"/><circle cx="92" cy="716" r="1.5"/><circle cx="92" cy="768" r="1.5"/><circle cx="92" cy="820" r="1.5"/><circle cx="92" cy="872" r="1.5"/><circle cx="144" cy="40" r="1.5"/><circle cx="144" cy="92" r="1.5"/><circle cx="144" cy="144" r="1.5"/><circle cx="144" cy="196" r="1.5"/><circle cx="144" cy="248" r="1.5"/><circle cx="144" cy="300" r="1.5"/><circle cx="144" cy="352" r="1.5"/><circle cx="144" cy="404" r="1.5"/><circle cx="144" cy="456" r="1.5"/><circle cx="144" cy="508" r="1.5"/><circle cx="144" cy="560" r="1.5"/><circle cx="144" cy="612" r="1.5"/><circle cx="144" cy="664" r="1.5"/><circle cx="144" cy="716" r="1.5"/><circle cx="144" cy="768" r="1.5"/><circle cx="144" cy="820" r="1.5"/><circle cx="144" cy="872" r="1.5"/><circle cx="196" cy="40" r="1.5"/><circle cx="196" cy="92" r="1.5"/><circle cx="196" cy="144" r="1.5"/><circle cx="196" cy="196" r="1.5"/><circle cx="196" cy="248" r="1.5"/><circle cx="196" cy="300" r="1.5"/><circle cx="196" cy="352" r="1.5"/><circle cx="196" cy="404" r="1.5"/><circle cx="196" cy="456" r="1.5"/><circle cx="196" cy="508" r="1.5"/><circle cx="196" cy="560" r="1.5"/><circle cx="196" cy="612" r="1.5"/><circle cx="196" cy="664" r="1.5"/><circle cx="196" cy="716" r="1.5"/><circle cx="196" cy="768" r="1.5"/><circle cx="196" cy="820" r="1.5"/><circle cx="196" cy="872" r="1.5"/><circle cx="248" cy="40" r="1.5"/><circle cx="248" cy="92" r="1.5"/><circle cx="248" cy="144" r="1.5"/><circle cx="248" cy="196" r="1.5"/><circle cx="248" cy="248" r="1.5"/><circle cx="248" cy="300" r="1.5"/><circle cx="248" cy="352" r="1.5"/><circle cx="248" cy="404" r="1.5"/><circle cx="248" cy="456" r="1.5"/><circle cx="248" cy="508" r="1.5"/><circle cx="248" cy="560" r="1.5"/><circle cx="248" cy="612" r="1.5"/><circle cx="248" cy="664" r="1.5"/><circle cx="248" cy="716" r="1.5"/><circle cx="248" cy="768" r="1.5"/><circle cx="248" cy="820" r="1.5"/><circle cx="248" cy="872" r="1.5"/><circle cx="300" cy="40" r="1.5"/><circle cx="300" cy="92" r="1.5"/><circle cx="300" cy="144" r="1.5"/><circle cx="300" cy="196" r="1.5"/><circle cx="300" cy="248" r="1.5"/><circle cx="300" cy="300" r="1.5"/><circle cx="300" cy="352" r="1.5"/><circle cx="300" cy="404" r="1.5"/><circle cx="300" cy="456" r="1.5"/><circle cx="300" cy="508" r="1.5"/><circle cx="300" cy="560" r="1.5"/><circle cx="300" cy="612" r="1.5"/><circle cx="300" cy="664" r="1.5"/><circle cx="300" cy="716" r="1.5"/><circle cx="300" cy="768" r="1.5"/><circle cx="300" cy="820" r="1.5"/><circle cx="300" cy="872" r="1.5"/><circle cx="352" cy="40" r="1.5"/><circle cx="352" cy="92" r="1.5"/><circle cx="352" cy="144" r="1.5"/><circle cx="352" cy="196" r="1.5"/><circle cx="352" cy="248" r="1.5"/><circle cx="352" cy="300" r="1.5"/><circle cx="352" cy="352" r="1.5"/><circle cx="352" cy="404" r="1.5"/><circle cx="352" cy="456" r="1.5"/><circle cx="352" cy="508" r="1.5"/><circle cx="352" cy="560" r="1.5"/><circle cx="352" cy="612" r="1.5"/><circle cx="352" cy="664" r="1.5"/><circle cx="352" cy="716" r="1.5"/><circle cx="352" cy="768" r="1.5"/><circle cx="352" cy="820" r="1.5"/><circle cx="352" cy="872" r="1.5"/><circle cx="404" cy="40" r="1.5"/><circle cx="404" cy="92" r="1.5"/><circle cx="404" cy="144" r="1.5"/><circle cx="404" cy="196" r="1.5"/><circle cx="404" cy="248" r="1.5"/><circle cx="404" cy="300" r="1.5"/><circle cx="404" cy="352" r="1.5"/><circle cx="404" cy="404" r="1.5"/><circle cx="404" cy="456" r="1.5"/><circle cx="404" cy="508" r="1.5"/><circle cx="404" cy="560" r="1.5"/><circle cx="404" cy="612" r="1.5"/><circle cx="404" cy="664" r="1.5"/><circle cx="404" cy="716" r="1.5"/><circle cx="404" cy="768" r="1.5"/><circle cx="404" cy="820" r="1.5"/><circle cx="404" cy="872" r="1.5"/><circle cx="456" cy="40" r="1.5"/><circle cx="456" cy="92" r="1.5"/><circle cx="456" cy="144" r="1.5"/><circle cx="456" cy="196" r="1.5"/><circle cx="456" cy="248" r="1.5"/><circle cx="456" cy="300" r="1.5"/><circle cx="456" cy="352" r="1.5"/><circle cx="456" cy="404" r="1.5"/><circle cx="456" cy="456" r="1.5"/><circle cx="456" cy="508" r="1.5"/><circle cx="456" cy="560" r="1.5"/><circle cx="456" cy="612" r="1.5"/><circle cx="456" cy="664" r="1.5"/><circle cx="456" cy="716" r="1.5"/><circle cx="456" cy="768" r="1.5"/><circle cx="456" cy="820" r="1.5"/><circle cx="456" cy="872" r="1.5"/><circle cx="508" cy="40" r="1.5"/><circle cx="508" cy="92" r="1.5"/><circle cx="508" cy="144" r="1.5"/><circle cx="508" cy="196" r="1.5"/><circle cx="508" cy="248" r="1.5"/><circle cx="508" cy="300" r="1.5"/><circle cx="508" cy="352" r="1.5"/><circle cx="508" cy="404" r="1.5"/><circle cx="508" cy="456" r="1.5"/><circle cx="508" cy="508" r="1.5"/><circle cx="508" cy="560" r="1.5"/><circle cx="508" cy="612" r="1.5"/><circle cx="508" cy="664" r="1.5"/><circle cx="508" cy="716" r="1.5"/><circle cx="508" cy="768" r="1.5"/><circle cx="508" cy="820" r="1.5"/><circle cx="508" cy="872" r="1.5"/><circle cx="560" cy="40" r="1.5"/><circle cx="560" cy="92" r="1.5"/><circle cx="560" cy="144" r="1.5"/><circle cx="560" cy="196" r="1.5"/><circle cx="560" cy="248" r="1.5"/><circle cx="560" cy="300" r="1.5"/><circle cx="560" cy="352" r="1.5"/><circle cx="560" cy="404" r="1.5"/><circle cx="560" cy="456" r="1.5"/><circle cx="560" cy="508" r="1.5"/><circle cx="560" cy="560" r="1.5"/><circle cx="560" cy="612" r="1.5"/><circle cx="560" cy="664" r="1.5"/><circle cx="560" cy="716" r="1.5"/><circle cx="560" cy="768" r="1.5"/><circle cx="560" cy="820" r="1.5"/><circle cx="560" cy="872" r="1.5"/><circle cx="612" cy="40" r="1.5"/><circle cx="612" cy="92" r="1.5"/><circle cx="612" cy="144" r="1.5"/><circle cx="612" cy="196" r="1.5"/><circle cx="612" cy="248" r="1.5"/><circle cx="612" cy="300" r="1.5"/><circle cx="612" cy="352" r="1.5"/><circle cx="612" cy="404" r="1.5"/><circle cx="612" cy="456" r="1.5"/><circle cx="612" cy="508" r="1.5"/><circle cx="612" cy="560" r="1.5"/><circle cx="612" cy="612" r="1.5"/><circle cx="612" cy="664" r="1.5"/><circle cx="612" cy="716" r="1.5"/><circle cx="612" cy="768" r="1.5"/><circle cx="612" cy="820" r="1.5"/><circle cx="612" cy="872" r="1.5"/><circle cx="664" cy="40" r="1.5"/><circle cx="664" cy="92" r="1.5"/><circle cx="664" cy="144" r="1.5"/><circle cx="664" cy="196" r="1.5"/><circle cx="664" cy="248" r="1.5"/><circle cx="664" cy="300" r="1.5"/><circle cx="664" cy="352" r="1.5"/><circle cx="664" cy="404" r="1.5"/><circle cx="664" cy="456" r="1.5"/><circle cx="664" cy="508" r="1.5"/><circle cx="664" cy="560" r="1.5"/><circle cx="664" cy="612" r="1.5"/><circle cx="664" cy="664" r="1.5"/><circle cx="664" cy="716" r="1.5"/><circle cx="664" cy="768" r="1.5"/><circle cx="664" cy="820" r="1.5"/><circle cx="664" cy="872" r="1.5"/><circle cx="716" cy="40" r="1.5"/><circle cx="716" cy="92" r="1.5"/><circle cx="716" cy="144" r="1.5"/><circle cx="716" cy="196" r="1.5"/><circle cx="716" cy="248" r="1.5"/><circle cx="716" cy="300" r="1.5"/><circle cx="716" cy="352" r="1.5"/><circle cx="716" cy="404" r="1.5"/><circle cx="716" cy="456" r="1.5"/><circle cx="716" cy="508" r="1.5"/><circle cx="716" cy="560" r="1.5"/><circle cx="716" cy="612" r="1.5"/><circle cx="716" cy="664" r="1.5"/><circle cx="716" cy="716" r="1.5"/><circle cx="716" cy="768" r="1.5"/><circle cx="716" cy="820" r="1.5"/><circle cx="716" cy="872" r="1.5"/><circle cx="768" cy="40" r="1.5"/><circle cx="768" cy="92" r="1.5"/><circle cx="768" cy="144" r="1.5"/><circle cx="768" cy="196" r="1.5"/><circle cx="768" cy="248" r="1.5"/><circle cx="768" cy="300" r="1.5"/><circle cx="768" cy="352" r="1.5"/><circle cx="768" cy="404" r="1.5"/><circle cx="768" cy="456" r="1.5"/><circle cx="768" cy="508" r="1.5"/><circle cx="768" cy="560" r="1.5"/><circle cx="768" cy="612" r="1.5"/><circle cx="768" cy="664" r="1.5"/><circle cx="768" cy="716" r="1.5"/><circle cx="768" cy="768" r="1.5"/><circle cx="768" cy="820" r="1.5"/><circle cx="768" cy="872" r="1.5"/><circle cx="820" cy="40" r="1.5"/><circle cx="820" cy="92" r="1.5"/><circle cx="820" cy="144" r="1.5"/><circle cx="820" cy="196" r="1.5"/><circle cx="820" cy="248" r="1.5"/><circle cx="820" cy="300" r="1.5"/><circle cx="820" cy="352" r="1.5"/><circle cx="820" cy="404" r="1.5"/><circle cx="820" cy="456" r="1.5"/><circle cx="820" cy="508" r="1.5"/><circle cx="820" cy="560" r="1.5"/><circle cx="820" cy="612" r="1.5"/><circle cx="820" cy="664" r="1.5"/><circle cx="820" cy="716" r="1.5"/><circle cx="820" cy="768" r="1.5"/><circle cx="820" cy="820" r="1.5"/><circle cx="820" cy="872" r="1.5"/><circle cx="872" cy="40" r="1.5"/><circle cx="872" cy="92" r="1.5"/><circle cx="872" cy="144" r="1.5"/><circle cx="872" cy="196" r="1.5"/><circle cx="872" cy="248" r="1.5"/><circle cx="872" cy="300" r="1.5"/><circle cx="872" cy="352" r="1.5"/><circle cx="872" cy="404" r="1.5"/><circle cx="872" cy="456" r="1.5"/><circle cx="872" cy="508" r="1.5"/><circle cx="872" cy="560" r="1.5"/><circle cx="872" cy="612" r="1.5"/><circle cx="872" cy="664" r="1.5"/><circle cx="872" cy="716" r="1.5"/><circle cx="872" cy="768" r="1.5"/><circle cx="872" cy="820" r="1.5"/><circle cx="872" cy="872" r="1.5"/><circle cx="924" cy="40" r="1.5"/><circle cx="924" cy="92" r="1.5"/><circle cx="924" cy="144" r="1.5"/><circle cx="924" cy="196" r="1.5"/><circle cx="924" cy="248" r="1.5"/><circle cx="924" cy="300" r="1.5"/><circle cx="924" cy="352" r="1.5"/><circle cx="924" cy="404" r="1.5"/><circle cx="924" cy="456" r="1.5"/><circle cx="924" cy="508" r="1.5"/><circle cx="924" cy="560" r="1.5"/><circle cx="924" cy="612" r="1.5"/><circle cx="924" cy="664" r="1.5"/><circle cx="924" cy="716" r="1.5"/><circle cx="924" cy="768" r="1.5"/><circle cx="924" cy="820" r="1.5"/><circle cx="924" cy="872" r="1.5"/><circle cx="976" cy="40" r="1.5"/><circle cx="976" cy="92" r="1.5"/><circle cx="976" cy="144" r="1.5"/><circle cx="976" cy="196" r="1.5"/><circle cx="976" cy="248" r="1.5"/><circle cx="976" cy="300" r="1.5"/><circle cx="976" cy="352" r="1.5"/><circle cx="976" cy="404" r="1.5"/><circle cx="976" cy="456" r="1.5"/><circle cx="976" cy="508" r="1.5"/><circle cx="976" cy="560" r="1.5"/><circle cx="976" cy="612" r="1.5"/><circle cx="976" cy="664" r="1.5"/><circle cx="976" cy="716" r="1.5"/><circle cx="976" cy="768" r="1.5"/><circle cx="976" cy="820" r="1.5"/><circle cx="976" cy="872" r="1.5"/><circle cx="1028" cy="40" r="1.5"/><circle cx="1028" cy="92" r="1.5"/><circle cx="1028" cy="144" r="1.5"/><circle cx="1028" cy="196" r="1.5"/><circle cx="1028" cy="248" r="1.5"/><circle cx="1028" cy="300" r="1.5"/><circle cx="1028" cy="352" r="1.5"/><circle cx="1028" cy="404" r="1.5"/><circle cx="1028" cy="456" r="1.5"/><circle cx="1028" cy="508" r="1.5"/><circle cx="1028" cy="560" r="1.5"/><circle cx="1028" cy="612" r="1.5"/><circle cx="1028" cy="664" r="1.5"/><circle cx="1028" cy="716" r="1.5"/><circle cx="1028" cy="768" r="1.5"/><circle cx="1028" cy="820" r="1.5"/><circle cx="1028" cy="872" r="1.5"/><circle cx="1080" cy="40" r="1.5"/><circle cx="1080" cy="92" r="1.5"/><circle cx="1080" cy="144" r="1.5"/><circle cx="1080" cy="196" r="1.5"/><circle cx="1080" cy="248" r="1.5"/><circle cx="1080" cy="300" r="1.5"/><circle cx="1080" cy="352" r="1.5"/><circle cx="1080" cy="404" r="1.5"/><circle cx="1080" cy="456" r="1.5"/><circle cx="1080" cy="508" r="1.5"/><circle cx="1080" cy="560" r="1.5"/><circle cx="1080" cy="612" r="1.5"/><circle cx="1080" cy="664" r="1.5"/><circle cx="1080" cy="716" r="1.5"/><circle cx="1080" cy="768" r="1.5"/><circle cx="1080" cy="820" r="1.5"/><circle cx="1080" cy="872" r="1.5"/><circle cx="1132" cy="40" r="1.5"/><circle cx="1132" cy="92" r="1.5"/><circle cx="1132" cy="144" r="1.5"/><circle cx="1132" cy="196" r="1.5"/><circle cx="1132" cy="248" r="1.5"/><circle cx="1132" cy="300" r="1.5"/><circle cx="1132" cy="352" r="1.5"/><circle cx="1132" cy="404" r="1.5"/><circle cx="1132" cy="456" r="1.5"/><circle cx="1132" cy="508" r="1.5"/><circle cx="1132" cy="560" r="1.5"/><circle cx="1132" cy="612" r="1.5"/><circle cx="1132" cy="664" r="1.5"/><circle cx="1132" cy="716" r="1.5"/><circle cx="1132" cy="768" r="1.5"/><circle cx="1132" cy="820" r="1.5"/><circle cx="1132" cy="872" r="1.5"/><circle cx="1184" cy="40" r="1.5"/><circle cx="1184" cy="92" r="1.5"/><circle cx="1184" cy="144" r="1.5"/><circle cx="1184" cy="196" r="1.5"/><circle cx="1184" cy="248" r="1.5"/><circle cx="1184" cy="300" r="1.5"/><circle cx="1184" cy="352" r="1.5"/><circle cx="1184" cy="404" r="1.5"/><circle cx="1184" cy="456" r="1.5"/><circle cx="1184" cy="508" r="1.5"/><circle cx="1184" cy="560" r="1.5"/><circle cx="1184" cy="612" r="1.5"/><circle cx="1184" cy="664" r="1.5"/><circle cx="1184" cy="716" r="1.5"/><circle cx="1184" cy="768" r="1.5"/><circle cx="1184" cy="820" r="1.5"/><circle cx="1184" cy="872" r="1.5"/><circle cx="1236" cy="40" r="1.5"/><circle cx="1236" cy="92" r="1.5"/><circle cx="1236" cy="144" r="1.5"/><circle cx="1236" cy="196" r="1.5"/><circle cx="1236" cy="248" r="1.5"/><circle cx="1236" cy="300" r="1.5"/><circle cx="1236" cy="352" r="1.5"/><circle cx="1236" cy="404" r="1.5"/><circle cx="1236" cy="456" r="1.5"/><circle cx="1236" cy="508" r="1.5"/><circle cx="1236" cy="560" r="1.5"/><circle cx="1236" cy="612" r="1.5"/><circle cx="1236" cy="664" r="1.5"/><circle cx="1236" cy="716" r="1.5"/><circle cx="1236" cy="768" r="1.5"/><circle cx="1236" cy="820" r="1.5"/><circle cx="1236" cy="872" r="1.5"/><circle cx="1288" cy="40" r="1.5"/><circle cx="1288" cy="92" r="1.5"/><circle cx="1288" cy="144" r="1.5"/><circle cx="1288" cy="196" r="1.5"/><circle cx="1288" cy="248" r="1.5"/><circle cx="1288" cy="300" r="1.5"/><circle cx="1288" cy="352" r="1.5"/><circle cx="1288" cy="404" r="1.5"/><circle cx="1288" cy="456" r="1.5"/><circle cx="1288" cy="508" r="1.5"/><circle cx="1288" cy="560" r="1.5"/><circle cx="1288" cy="612" r="1.5"/><circle cx="1288" cy="664" r="1.5"/><circle cx="1288" cy="716" r="1.5"/><circle cx="1288" cy="768" r="1.5"/><circle cx="1288" cy="820" r="1.5"/><circle cx="1288" cy="872" r="1.5"/><circle cx="1340" cy="40" r="1.5"/><circle cx="1340" cy="92" r="1.5"/><circle cx="1340" cy="144" r="1.5"/><circle cx="1340" cy="196" r="1.5"/><circle cx="1340" cy="248" r="1.5"/><circle cx="1340" cy="300" r="1.5"/><circle cx="1340" cy="352" r="1.5"/><circle cx="1340" cy="404" r="1.5"/><circle cx="1340" cy="456" r="1.5"/><circle cx="1340" cy="508" r="1.5"/><circle cx="1340" cy="560" r="1.5"/><circle cx="1340" cy="612" r="1.5"/><circle cx="1340" cy="664" r="1.5"/><circle cx="1340" cy="716" r="1.5"/><circle cx="1340" cy="768" r="1.5"/><circle cx="1340" cy="820" r="1.5"/><circle cx="1340" cy="872" r="1.5"/><circle cx="1392" cy="40" r="1.5"/><circle cx="1392" cy="92" r="1.5"/><circle cx="1392" cy="144" r="1.5"/><circle cx="1392" cy="196" r="1.5"/><circle cx="1392" cy="248" r="1.5"/><circle cx="1392" cy="300" r="1.5"/><circle cx="1392" cy="352" r="1.5"/><circle cx="1392" cy="404" r="1.5"/><circle cx="1392" cy="456" r="1.5"/><circle cx="1392" cy="508" r="1.5"/><circle cx="1392" cy="560" r="1.5"/><circle cx="1392" cy="612" r="1.5"/><circle cx="1392" cy="664" r="1.5"/><circle cx="1392" cy="716" r="1.5"/><circle cx="1392" cy="768" r="1.5"/><circle cx="1392" cy="820" r="1.5"/><circle cx="1392" cy="872" r="1.5"/><circle cx="1444" cy="40" r="1.5"/><circle cx="1444" cy="92" r="1.5"/><circle cx="1444" cy="144" r="1.5"/><circle cx="1444" cy="196" r="1.5"/><circle cx="1444" cy="248" r="1.5"/><circle cx="1444" cy="300" r="1.5"/><circle cx="1444" cy="352" r="1.5"/><circle cx="1444" cy="404" r="1.5"/><circle cx="1444" cy="456" r="1.5"/><circle cx="1444" cy="508" r="1.5"/><circle cx="1444" cy="560" r="1.5"/><circle cx="1444" cy="612" r="1.5"/><circle cx="1444" cy="664" r="1.5"/><circle cx="1444" cy="716" r="1.5"/><circle cx="1444" cy="768" r="1.5"/><circle cx="1444" cy="820" r="1.5"/><circle cx="1444" cy="872" r="1.5"/><circle cx="1496" cy="40" r="1.5"/><circle cx="1496" cy="92" r="1.5"/><circle cx="1496" cy="144" r="1.5"/><circle cx="1496" cy="196" r="1.5"/><circle cx="1496" cy="248" r="1.5"/><circle cx="1496" cy="300" r="1.5"/><circle cx="1496" cy="352" r="1.5"/><circle cx="1496" cy="404" r="1.5"/><circle cx="1496" cy="456" r="1.5"/><circle cx="1496" cy="508" r="1.5"/><circle cx="1496" cy="560" r="1.5"/><circle cx="1496" cy="612" r="1.5"/><circle cx="1496" cy="664" r="1.5"/><circle cx="1496" cy="716" r="1.5"/><circle cx="1496" cy="768" r="1.5"/><circle cx="1496" cy="820" r="1.5"/><circle cx="1496" cy="872" r="1.5"/><circle cx="1548" cy="40" r="1.5"/><circle cx="1548" cy="92" r="1.5"/><circle cx="1548" cy="144" r="1.5"/><circle cx="1548" cy="196" r="1.5"/><circle cx="1548" cy="248" r="1.5"/><circle cx="1548" cy="300" r="1.5"/><circle cx="1548" cy="352" r="1.5"/><circle cx="1548" cy="404" r="1.5"/><circle cx="1548" cy="456" r="1.5"/><circle cx="1548" cy="508" r="1.5"/><circle cx="1548" cy="560" r="1.5"/><circle cx="1548" cy="612" r="1.5"/><circle cx="1548" cy="664" r="1.5"/><circle cx="1548" cy="716" r="1.5"/><circle cx="1548" cy="768" r="1.5"/><circle cx="1548" cy="820" r="1.5"/><circle cx="1548" cy="872" r="1.5"/></g><g stroke="#c2d4f2" fill="none" opacity="0.8" stroke-width="1.4"><circle cx="1330" cy="230" r="300"/><ellipse cx="1330" cy="230" rx="289.8" ry="300"/><ellipse cx="1330" cy="230" rx="259.8" ry="300"/><ellipse cx="1330" cy="230" rx="212.1" ry="300"/><ellipse cx="1330" cy="230" rx="150.0" ry="300"/><ellipse cx="1330" cy="230" rx="77.6" ry="300"/><line x1="1330" y1="-70" x2="1330" y2="530"/><ellipse cx="1330" cy="137.3" rx="285.3" ry="51.4"/><ellipse cx="1330" cy="322.7" rx="285.3" ry="51.4"/><ellipse cx="1330" cy="53.7" rx="242.7" ry="43.7"/><ellipse cx="1330" cy="406.3" rx="242.7" ry="43.7"/><ellipse cx="1330" cy="-12.7" rx="176.3" ry="31.7"/><ellipse cx="1330" cy="472.7" rx="176.3" ry="31.7"/><ellipse cx="1330" cy="-55.3" rx="92.7" ry="16.7"/><ellipse cx="1330" cy="515.3" rx="92.7" ry="16.7"/><ellipse cx="1330" cy="230" rx="300" ry="54.0"/></g><g fill="#cdddf7" opacity="0.7"><rect x="120" y="680" width="50" height="120" rx="7"/><rect x="198" y="620" width="50" height="180" rx="7"/><rect x="276" y="550" width="50" height="250" rx="7"/><rect x="354" y="570" width="50" height="230" rx="7"/><rect x="432" y="480" width="50" height="320" rx="7"/><rect x="510" y="400" width="50" height="400" rx="7"/></g></svg>