<svg xmlns="http://www.w3.org/2000/svg" viewBox="0 0 1600 900" role="img" aria-label=""><defs>
  <linearGradient id="cbg" x1="0" y1="0" x2="1" y2="1">
    <stop offset="0" stop-color="#070f24"/><stop offset="55%" stop-color="#0d1c45"/><stop offset="100%" stop-color="#16295e"/>
  </linearGradient>
  <radialGradient id="cglow" cx="50%" cy="50%" r="50%">
    <stop offset="0" stop-color="#2563eb" stop-opacity="0.45"/><stop offset="100%" stop-color="#2563eb" stop-opacity="0"/>
  </radialGradient>
  <radialGradient id="cglow2" cx="50%" cy="50%" r="50%">
    <stop offset="0" stop-color="#38bdf8" stop-opacity="0.4"/><stop offset="100%" stop-color="#38bdf8" stop-opacity="0"/>
  </radialGradient></defs><rect width="1600" height="900" fill="url(#cbg)"/><circle cx="180" cy="240" r="480" fill="url(#cglow)"/><circle cx="1400" cy="760" r="460" fill="url(#cglow2)"/><g fill="#9fc3ff" opacity="0.08"><circle cx="40" cy="40" r="1.4"/><circle cx="40" cy="86" r="1.4"/><circle cx="40" cy="132" r="1.4"/><circle cx="40" cy="178" r="1.4"/><circle cx="40" cy="224" r="1.4"/><circle cx="40" cy="270" r="1.4"/><circle cx="40" cy="316" r="1.4"/><circle cx="40" cy="362" r="1.4"/><circle cx="40" cy="408" r="1.4"/><circle cx="40" cy="454" r="1.4"/><circle cx="40" cy="500" r="1.4"/><circle cx="40" cy="546" r="1.4"/><circle cx="40" cy="592" r="1.4"/><circle cx="40" cy="638" r="1.4"/><circle cx="40" cy="684" r="1.4"/><circle cx="40" cy="730" r="1.4"/><circle cx="40" cy="776" r="1.4"/><circle cx="40" cy="822" r="1.4"/><circle cx="40" cy="868" r="1.4"/><circle cx="86" cy="40" r="1.4"/><circle cx="86" cy="86" r="1.4"/><circle cx="86" cy="132" r="1.4"/><circle cx="86" cy="178" r="1.4"/><circle cx="86" cy="224" r="1.4"/><circle cx="86" cy="270" r="1.4"/><circle cx="86" cy="316" r="1.4"/><circle cx="86" cy="362" r="1.4"/><circle cx="86" cy="408" r="1.4"/><circle cx="86" cy="454" r="1.4"/><circle cx="86" cy="500" r="1.4"/><circle cx="86" cy="546" r="1.4"/><circle cx="86" cy="592" r="1.4"/><circle cx="86" cy="638" r="1.4"/><circle cx="86" cy="684" r="1.4"/><circle cx="86" cy="730" r="1.4"/><circle cx="86" cy="776" r="1.4"/><circle cx="86" cy="822" r="1.4"/><circle cx="86" cy="868" r="1.4"/><circle cx="132" cy="40" r="1.4"/><circle cx="132" cy="86" r="1.4"/><circle cx="132" cy="132" r="1.4"/><circle cx="132" cy="178" r="1.4"/><circle cx="132" cy="224" r="1.4"/><circle cx="132" cy="270" r="1.4"/><circle cx="132" cy="316" r="1.4"/><circle cx="132" cy="362" r="1.4"/><circle cx="132" cy="408" r="1.4"/><circle cx="132" cy="454" r="1.4"/><circle cx="132" cy="500" r="1.4"/><circle cx="132" cy="546" r="1.4"/><circle cx="132" cy="592" r="1.4"/><circle cx="132" cy="638" r="1.4"/><circle cx="132" cy="684" r="1.4"/><circle cx="132" cy="730" r="1.4"/><circle cx="132" cy="776" r="1.4"/><circle cx="132" cy="822" r="1.4"/><circle cx="132" cy="868" r="1.4"/><circle cx="178" cy="40" r="1.4"/><circle cx="178" cy="86" r="1.4"/><circle cx="178" cy="132" r="1.4"/><circle cx="178" cy="178" r="1.4"/><circle cx="178" cy="224" r="1.4"/><circle cx="178" cy="270" r="1.4"/><circle cx="178" cy="316" r="1.4"/><circle cx="178" cy="362" r="1.4"/><circle cx="178" cy="408" r="1.4"/><circle cx="178" cy="454" r="1.4"/><circle cx="178" cy="500" r="1.4"/><circle cx="178" cy="546" r="1.4"/><circle cx="178" cy="592" r="1.4"/><circle cx="178" cy="638" r="1.4"/><circle cx="178" cy="684" r="1.4"/><circle cx="178" cy="730" r="1.4"/><circle cx="178" cy="776" r="1.4"/><circle cx="178" cy="822" r="1.4"/><circle cx="178" cy="868" r="1.4"/><circle cx="224" cy="40" r="1.4"/><circle cx="224" cy="86" r="1.4"/><circle cx="224" cy="132" r="1.4"/><circle cx="224" cy="178" r="1.4"/><circle cx="224" cy="224" r="1.4"/><circle cx="224" cy="270" r="1.4"/><circle cx="224" cy="316" r="1.4"/><circle cx="224" cy="362" r="1.4"/><circle cx="224" cy="408" r="1.4"/><circle cx="224" cy="454" r="1.4"/><circle cx="224" cy="500" r="1.4"/><circle cx="224" cy="546" r="1.4"/><circle cx="224" cy="592" r="1.4"/><circle cx="224" cy="638" r="1.4"/><circle cx="224" cy="684" r="1.4"/><circle cx="224" cy="730" r="1.4"/><circle cx="224" cy="776" r="1.4"/><circle cx="224" cy="822" r="1.4"/><circle cx="224" cy="868" r="1.4"/><circle cx="270" cy="40" r="1.4"/><circle cx="270" cy="86" r="1.4"/><circle cx="270" cy="132" r="1.4"/><circle cx="270" cy="178" r="1.4"/><circle cx="270" cy="224" r="1.4"/><circle cx="270" cy="270" r="1.4"/><circle cx="270" cy="316" r="1.4"/><circle cx="270" cy="362" r="1.4"/><circle cx="270" cy="408" r="1.4"/><circle cx="270" cy="454" r="1.4"/><circle cx="270" cy="500" r="1.4"/><circle cx="270" cy="546" r="1.4"/><circle cx="270" cy="592" r="1.4"/><circle cx="270" cy="638" r="1.4"/><circle cx="270" cy="684" r="1.4"/><circle cx="270" cy="730" r="1.4"/><circle cx="270" cy="776" r="1.4"/><circle cx="270" cy="822" r="1.4"/><circle cx="270" cy="868" r="1.4"/><circle cx="316" cy="40" r="1.4"/><circle cx="316" cy="86" r="1.4"/><circle cx="316" cy="132" r="1.4"/><circle cx="316" cy="178" r="1.4"/><circle cx="316" cy="224" r="1.4"/><circle cx="316" cy="270" r="1.4"/><circle cx="316" cy="316" r="1.4"/><circle cx="316" cy="362" r="1.4"/><circle cx="316" cy="408" r="1.4"/><circle cx="316" cy="454" r="1.4"/><circle cx="316" cy="500" r="1.4"/><circle cx="316" cy="546" r="1.4"/><circle cx="316" cy="592" r="1.4"/><circle cx="316" cy="638" r="1.4"/><circle cx="316" cy="684" r="1.4"/><circle cx="316" cy="730" r="1.4"/><circle cx="316" cy="776" r="1.4"/><circle cx="316" cy="822" r="1.4"/><circle cx="316" cy="868" r="1.4"/><circle cx="362" cy="40" r="1.4"/><circle cx="362" cy="86" r="1.4"/><circle cx="362" cy="132" r="1.4"/><circle cx="362" cy="178" r="1.4"/><circle cx="362" cy="224" r="1.4"/><circle cx="362" cy="270" r="1.4"/><circle cx="362" cy="316" r="1.4"/><circle cx="362" cy="362" r="1.4"/><circle cx="362" cy="408" r="1.4"/><circle cx="362" cy="454" r="1.4"/><circle cx="362" cy="500" r="1.4"/><circle cx="362" cy="546" r="1.4"/><circle cx="362" cy="592" r="1.4"/><circle cx="362" cy="638" r="1.4"/><circle cx="362" cy="684" r="1.4"/><circle cx="362" cy="730" r="1.4"/><circle cx="362" cy="776" r="1.4"/><circle cx="362" cy="822" r="1.4"/><circle cx="362" cy="868" r="1.4"/><circle cx="408" cy="40" r="1.4"/><circle cx="408" cy="86" r="1.4"/><circle cx="408" cy="132" r="1.4"/><circle cx="408" cy="178" r="1.4"/><circle cx="408" cy="224" r="1.4"/><circle cx="408" cy="270" r="1.4"/><circle cx="408" cy="316" r="1.4"/><circle cx="408" cy="362" r="1.4"/><circle cx="408" cy="408" r="1.4"/><circle cx="408" cy="454" r="1.4"/><circle cx="408" cy="500" r="1.4"/><circle cx="408" cy="546" r="1.4"/><circle cx="408" cy="592" r="1.4"/><circle cx="408" cy="638" r="1.4"/><circle cx="408" cy="684" r="1.4"/><circle cx="408" cy="730" r="1.4"/><circle cx="408" cy="776" r="1.4"/><circle cx="408" cy="822" r="1.4"/><circle cx="408" cy="868" r="1.4"/><circle cx="454" cy="40" r="1.4"/><circle cx="454" cy="86" r="1.4"/><circle cx="454" cy="132" r="1.4"/><circle cx="454" cy="178" r="1.4"/><circle cx="454" cy="224" r="1.4"/><circle cx="454" cy="270" r="1.4"/><circle cx="454" cy="316" r="1.4"/><circle cx="454" cy="362" r="1.4"/><circle cx="454" cy="408" r="1.4"/><circle cx="454" cy="454" r="1.4"/><circle cx="454" cy="500" r="1.4"/><circle cx="454" cy="546" r="1.4"/><circle cx="454" cy="592" r="1.4"/><circle cx="454" cy="638" r="1.4"/><circle cx="454" cy="684" r="1.4"/><circle cx="454" cy="730" r="1.4"/><circle cx="454" cy="776" r="1.4"/><circle cx="454" cy="822" r="1.4"/><circle cx="454" cy="868" r="1.4"/><circle cx="500" cy="40" r="1.4"/><circle cx="500" cy="86" r="1.4"/><circle cx="500" cy="132" r="1.4"/><circle cx="500" cy="178" r="1.4"/><circle cx="500" cy="224" r="1.4"/><circle cx="500" cy="270" r="1.4"/><circle cx="500" cy="316" r="1.4"/><circle cx="500" cy="362" r="1.4"/><circle cx="500" cy="408" r="1.4"/><circle cx="500" cy="454" r="1.4"/><circle cx="500" cy="500" r="1.4"/><circle cx="500" cy="546" r="1.4"/><circle cx="500" cy="592" r="1.4"/><circle cx="500" cy="638" r="1.4"/><circle cx="500" cy="684" r="1.4"/><circle cx="500" cy="730" r="1.4"/><circle cx="500" cy="776" r="1.4"/><circle cx="500" cy="822" r="1.4"/><circle cx="500" cy="868" r="1.4"/><circle cx="546" cy="40" r="1.4"/><circle cx="546" cy="86" r="1.4"/><circle cx="546" cy="132" r="1.4"/><circle cx="546" cy="178" r="1.4"/><circle cx="546" cy="224" r="1.4"/><circle cx="546" cy="270" r="1.4"/><circle cx="546" cy="316" r="1.4"/><circle cx="546" cy="362" r="1.4"/><circle cx="546" cy="408" r="1.4"/><circle cx="546" cy="454" r="1.4"/><circle cx="546" cy="500" r="1.4"/><circle cx="546" cy="546" r="1.4"/><circle cx="546" cy="592" r="1.4"/><circle cx="546" cy="638" r="1.4"/><circle cx="546" cy="684" r="1.4"/><circle cx="546" cy="730" r="1.4"/><circle cx="546" cy="776" r="1.4"/><circle cx="546" cy="822" r="1.4"/><circle cx="546" cy="868" r="1.4"/><circle cx="592" cy="40" r="1.4"/><circle cx="592" cy="86" r="1.4"/><circle cx="592" cy="132" r="1.4"/><circle cx="592" cy="178" r="1.4"/><circle cx="592" cy="224" r="1.4"/><circle cx="592" cy="270" r="1.4"/><circle cx="592" cy="316" r="1.4"/><circle cx="592" cy="362" r="1.4"/><circle cx="592" cy="408" r="1.4"/><circle cx="592" cy="454" r="1.4"/><circle cx="592" cy="500" r="1.4"/><circle cx="592" cy="546" r="1.4"/><circle cx="592" cy="592" r="1.4"/><circle cx="592" cy="638" r="1.4"/><circle cx="592" cy="684" r="1.4"/><circle cx="592" cy="730" r="1.4"/><circle cx="592" cy="776" r="1.4"/><circle cx="592" cy="822" r="1.4"/><circle cx="592" cy="868" r="1.4"/><circle cx="638" cy="40" r="1.4"/><circle cx="638" cy="86" r="1.4"/><circle cx="638" cy="132" r="1.4"/><circle cx="638" cy="178" r="1.4"/><circle cx="638" cy="224" r="1.4"/><circle cx="638" cy="270" r="1.4"/><circle cx="638" cy="316" r="1.4"/><circle cx="638" cy="362" r="1.4"/><circle cx="638" cy="408" r="1.4"/><circle cx="638" cy="454" r="1.4"/><circle cx="638" cy="500" r="1.4"/><circle cx="638" cy="546" r="1.4"/><circle cx="638" cy="592" r="1.4"/><circle cx="638" cy="638" r="1.4"/><circle cx="638" cy="684" r="1.4"/><circle cx="638" cy="730" r="1.4"/><circle cx="638" cy="776" r="1.4"/><circle cx="638" cy="822" r="1.4"/><circle cx="638" cy="868" r="1.4"/><circle cx="684" cy="40" r="1.4"/><circle cx="684" cy="86" r="1.4"/><circle cx="684" cy="132" r="1.4"/><circle cx="684" cy="178" r="1.4"/><circle cx="684" cy="224" r="1.4"/><circle cx="684" cy="270" r="1.4"/><circle cx="684" cy="316" r="1.4"/><circle cx="684" cy="362" r="1.4"/><circle cx="684" cy="408" r="1.4"/><circle cx="684" cy="454" r="1.4"/><circle cx="684" cy="500" r="1.4"/><circle cx="684" cy="546" r="1.4"/><circle cx="684" cy="592" r="1.4"/><circle cx="684" cy="638" r="1.4"/><circle cx="684" cy="684" r="1.4"/><circle cx="684" cy="730" r="1.4"/><circle cx="684" cy="776" r="1.4"/><circle cx="684" cy="822" r="1.4"/><circle cx="684" cy="868" r="1.4"/><circle cx="730" cy="40" r="1.4"/><circle cx="730" cy="86" r="1.4"/><circle cx="730" cy="132" r="1.4"/><circle cx="730" cy="178" r="1.4"/><circle cx="730" cy="224" r="1.4"/><circle cx="730" cy="270" r="1.4"/><circle cx="730" cy="316" r="1.4"/><circle cx="730" cy="362" r="1.4"/><circle cx="730" cy="408" r="1.4"/><circle cx="730" cy="454" r="1.4"/><circle cx="730" cy="500" r="1.4"/><circle cx="730" cy="546" r="1.4"/><circle cx="730" cy="592" r="1.4"/><circle cx="730" cy="638" r="1.4"/><circle cx="730" cy="684" r="1.4"/><circle cx="730" cy="730" r="1.4"/><circle cx="730" cy="776" r="1.4"/><circle cx="730" cy="822" r="1.4"/><circle cx="730" cy="868" r="1.4"/><circle cx="776" cy="40" r="1.4"/><circle cx="776" cy="86" r="1.4"/><circle cx="776" cy="132" r="1.4"/><circle cx="776" cy="178" r="1.4"/><circle cx="776" cy="224" r="1.4"/><circle cx="776" cy="270" r="1.4"/><circle cx="776" cy="316" r="1.4"/><circle cx="776" cy="362" r="1.4"/><circle cx="776" cy="408" r="1.4"/><circle cx="776" cy="454" r="1.4"/><circle cx="776" cy="500" r="1.4"/><circle cx="776" cy="546" r="1.4"/><circle cx="776" cy="592" r="1.4"/><circle cx="776" cy="638" r="1.4"/><circle cx="776" cy="684" r="1.4"/><circle cx="776" cy="730" r="1.4"/><circle cx="776" cy="776" r="1.4"/><circle cx="776" cy="822" r="1.4"/><circle cx="776" cy="868" r="1.4"/><circle cx="822" cy="40" r="1.4"/><circle cx="822" cy="86" r="1.4"/><circle cx="822" cy="132" r="1.4"/><circle cx="822" cy="178" r="1.4"/><circle cx="822" cy="224" r="1.4"/><circle cx="822" cy="270" r="1.4"/><circle cx="822" cy="316" r="1.4"/><circle cx="822" cy="362" r="1.4"/><circle cx="822" cy="408" r="1.4"/><circle cx="822" cy="454" r="1.4"/><circle cx="822" cy="500" r="1.4"/><circle cx="822" cy="546" r="1.4"/><circle cx="822" cy="592" r="1.4"/><circle cx="822" cy="638" r="1.4"/><circle cx="822" cy="684" r="1.4"/><circle cx="822" cy="730" r="1.4"/><circle cx="822" cy="776" r="1.4"/><circle cx="822" cy="822" r="1.4"/><circle cx="822" cy="868" r="1.4"/><circle cx="868" cy="40" r="1.4"/><circle cx="868" cy="86" r="1.4"/><circle cx="868" cy="132" r="1.4"/><circle cx="868" cy="178" r="1.4"/><circle cx="868" cy="224" r="1.4"/><circle cx="868" cy="270" r="1.4"/><circle cx="868" cy="316" r="1.4"/><circle cx="868" cy="362" r="1.4"/><circle cx="868" cy="408" r="1.4"/><circle cx="868" cy="454" r="1.4"/><circle cx="868" cy="500" r="1.4"/><circle cx="868" cy="546" r="1.4"/><circle cx="868" cy="592" r="1.4"/><circle cx="868" cy="638" r="1.4"/><circle cx="868" cy="684" r="1.4"/><circle cx="868" cy="730" r="1.4"/><circle cx="868" cy="776" r="1.4"/><circle cx="868" cy="822" r="1.4"/><circle cx="868" cy="868" r="1.4"/><circle cx="914" cy="40" r="1.4"/><circle cx="914" cy="86" r="1.4"/><circle cx="914" cy="132" r="1.4"/><circle cx="914" cy="178" r="1.4"/><circle cx="914" cy="224" r="1.4"/><circle cx="914" cy="270" r="1.4"/><circle cx="914" cy="316" r="1.4"/><circle cx="914" cy="362" r="1.4"/><circle cx="914" cy="408" r="1.4"/><circle cx="914" cy="454" r="1.4"/><circle cx="914" cy="500" r="1.4"/><circle cx="914" cy="546" r="1.4"/><circle cx="914" cy="592" r="1.4"/><circle cx="914" cy="638" r="1.4"/><circle cx="914" cy="684" r="1.4"/><circle cx="914" cy="730" r="1.4"/><circle cx="914" cy="776" r="1.4"/><circle cx="914" cy="822" r="1.4"/><circle cx="914" cy="868" r="1.4"/><circle cx="960" cy="40" r="1.4"/><circle cx="960" cy="86" r="1.4"/><circle cx="960" cy="132" r="1.4"/><circle cx="960" cy="178" r="1.4"/><circle cx="960" cy="224" r="1.4"/><circle cx="960" cy="270" r="1.4"/><circle cx="960" cy="316" r="1.4"/><circle cx="960" cy="362" r="1.4"/><circle cx="960" cy="408" r="1.4"/><circle cx="960" cy="454" r="1.4"/><circle cx="960" cy="500" r="1.4"/><circle cx="960" cy="546" r="1.4"/><circle cx="960" cy="592" r="1.4"/><circle cx="960" cy="638" r="1.4"/><circle cx="960" cy="684" r="1.4"/><circle cx="960" cy="730" r="1.4"/><circle cx="960" cy="776" r="1.4"/><circle cx="960" cy="822" r="1.4"/><circle cx="960" cy="868" r="1.4"/><circle cx="1006" cy="40" r="1.4"/><circle cx="1006" cy="86" r="1.4"/><circle cx="1006" cy="132" r="1.4"/><circle cx="1006" cy="178" r="1.4"/><circle cx="1006" cy="224" r="1.4"/><circle cx="1006" cy="270" r="1.4"/><circle cx="1006" cy="316" r="1.4"/><circle cx="1006" cy="362" r="1.4"/><circle cx="1006" cy="408" r="1.4"/><circle cx="1006" cy="454" r="1.4"/><circle cx="1006" cy="500" r="1.4"/><circle cx="1006" cy="546" r="1.4"/><circle cx="1006" cy="592" r="1.4"/><circle cx="1006" cy="638" r="1.4"/><circle cx="1006" cy="684" r="1.4"/><circle cx="1006" cy="730" r="1.4"/><circle cx="1006" cy="776" r="1.4"/><circle cx="1006" cy="822" r="1.4"/><circle cx="1006" cy="868" r="1.4"/><circle cx="1052" cy="40" r="1.4"/><circle cx="1052" cy="86" r="1.4"/><circle cx="1052" cy="132" r="1.4"/><circle cx="1052" cy="178" r="1.4"/><circle cx="1052" cy="224" r="1.4"/><circle cx="1052" cy="270" r="1.4"/><circle cx="1052" cy="316" r="1.4"/><circle cx="1052" cy="362" r="1.4"/><circle cx="1052" cy="408" r="1.4"/><circle cx="1052" cy="454" r="1.4"/><circle cx="1052" cy="500" r="1.4"/><circle cx="1052" cy="546" r="1.4"/><circle cx="1052" cy="592" r="1.4"/><circle cx="1052" cy="638" r="1.4"/><circle cx="1052" cy="684" r="1.4"/><circle cx="1052" cy="730" r="1.4"/><circle cx="1052" cy="776" r="1.4"/><circle cx="1052" cy="822" r="1.4"/><circle cx="1052" cy="868" r="1.4"/><circle cx="1098" cy="40" r="1.4"/><circle cx="1098" cy="86" r="1.4"/><circle cx="1098" cy="132" r="1.4"/><circle cx="1098" cy="178" r="1.4"/><circle cx="1098" cy="224" r="1.4"/><circle cx="1098" cy="270" r="1.4"/><circle cx="1098" cy="316" r="1.4"/><circle cx="1098" cy="362" r="1.4"/><circle cx="1098" cy="408" r="1.4"/><circle cx="1098" cy="454" r="1.4"/><circle cx="1098" cy="500" r="1.4"/><circle cx="1098" cy="546" r="1.4"/><circle cx="1098" cy="592" r="1.4"/><circle cx="1098" cy="638" r="1.4"/><circle cx="1098" cy="684" r="1.4"/><circle cx="1098" cy="730" r="1.4"/><circle cx="1098" cy="776" r="1.4"/><circle cx="1098" cy="822" r="1.4"/><circle cx="1098" cy="868" r="1.4"/><circle cx="1144" cy="40" r="1.4"/><circle cx="1144" cy="86" r="1.4"/><circle cx="1144" cy="132" r="1.4"/><circle cx="1144" cy="178" r="1.4"/><circle cx="1144" cy="224" r="1.4"/><circle cx="1144" cy="270" r="1.4"/><circle cx="1144" cy="316" r="1.4"/><circle cx="1144" cy="362" r="1.4"/><circle cx="1144" cy="408" r="1.4"/><circle cx="1144" cy="454" r="1.4"/><circle cx="1144" cy="500" r="1.4"/><circle cx="1144" cy="546" r="1.4"/><circle cx="1144" cy="592" r="1.4"/><circle cx="1144" cy="638" r="1.4"/><circle cx="1144" cy="684" r="1.4"/><circle cx="1144" cy="730" r="1.4"/><circle cx="1144" cy="776" r="1.4"/><circle cx="1144" cy="822" r="1.4"/><circle cx="1144" cy="868" r="1.4"/><circle cx="1190" cy="40" r="1.4"/><circle cx="1190" cy="86" r="1.4"/><circle cx="1190" cy="132" r="1.4"/><circle cx="1190" cy="178" r="1.4"/><circle cx="1190" cy="224" r="1.4"/><circle cx="1190" cy="270" r="1.4"/><circle cx="1190" cy="316" r="1.4"/><circle cx="1190" cy="362" r="1.4"/><circle cx="1190" cy="408" r="1.4"/><circle cx="1190" cy="454" r="1.4"/><circle cx="1190" cy="500" r="1.4"/><circle cx="1190" cy="546" r="1.4"/><circle cx="1190" cy="592" r="1.4"/><circle cx="1190" cy="638" r="1.4"/><circle cx="1190" cy="684" r="1.4"/><circle cx="1190" cy="730" r="1.4"/><circle cx="1190" cy="776" r="1.4"/><circle cx="1190" cy="822" r="1.4"/><circle cx="1190" cy="868" r="1.4"/><circle cx="1236" cy="40" r="1.4"/><circle cx="1236" cy="86" r="1.4"/><circle cx="1236" cy="132" r="1.4"/><circle cx="1236" cy="178" r="1.4"/><circle cx="1236" cy="224" r="1.4"/><circle cx="1236" cy="270" r="1.4"/><circle cx="1236" cy="316" r="1.4"/><circle cx="1236" cy="362" r="1.4"/><circle cx="1236" cy="408" r="1.4"/><circle cx="1236" cy="454" r="1.4"/><circle cx="1236" cy="500" r="1.4"/><circle cx="1236" cy="546" r="1.4"/><circle cx="1236" cy="592" r="1.4"/><circle cx="1236" cy="638" r="1.4"/><circle cx="1236" cy="684" r="1.4"/><circle cx="1236" cy="730" r="1.4"/><circle cx="1236" cy="776" r="1.4"/><circle cx="1236" cy="822" r="1.4"/><circle cx="1236" cy="868" r="1.4"/><circle cx="1282" cy="40" r="1.4"/><circle cx="1282" cy="86" r="1.4"/><circle cx="1282" cy="132" r="1.4"/><circle cx="1282" cy="178" r="1.4"/><circle cx="1282" cy="224" r="1.4"/><circle cx="1282" cy="270" r="1.4"/><circle cx="1282" cy="316" r="1.4"/><circle cx="1282" cy="362" r="1.4"/><circle cx="1282" cy="408" r="1.4"/><circle cx="1282" cy="454" r="1.4"/><circle cx="1282" cy="500" r="1.4"/><circle cx="1282" cy="546" r="1.4"/><circle cx="1282" cy="592" r="1.4"/><circle cx="1282" cy="638" r="1.4"/><circle cx="1282" cy="684" r="1.4"/><circle cx="1282" cy="730" r="1.4"/><circle cx="1282" cy="776" r="1.4"/><circle cx="1282" cy="822" r="1.4"/><circle cx="1282" cy="868" r="1.4"/><circle cx="1328" cy="40" r="1.4"/><circle cx="1328" cy="86" r="1.4"/><circle cx="1328" cy="132" r="1.4"/><circle cx="1328" cy="178" r="1.4"/><circle cx="1328" cy="224" r="1.4"/><circle cx="1328" cy="270" r="1.4"/><circle cx="1328" cy="316" r="1.4"/><circle cx="1328" cy="362" r="1.4"/><circle cx="1328" cy="408" r="1.4"/><circle cx="1328" cy="454" r="1.4"/><circle cx="1328" cy="500" r="1.4"/><circle cx="1328" cy="546" r="1.4"/><circle cx="1328" cy="592" r="1.4"/><circle cx="1328" cy="638" r="1.4"/><circle cx="1328" cy="684" r="1.4"/><circle cx="1328" cy="730" r="1.4"/><circle cx="1328" cy="776" r="1.4"/><circle cx="1328" cy="822" r="1.4"/><circle cx="1328" cy="868" r="1.4"/><circle cx="1374" cy="40" r="1.4"/><circle cx="1374" cy="86" r="1.4"/><circle cx="1374" cy="132" r="1.4"/><circle cx="1374" cy="178" r="1.4"/><circle cx="1374" cy="224" r="1.4"/><circle cx="1374" cy="270" r="1.4"/><circle cx="1374" cy="316" r="1.4"/><circle cx="1374" cy="362" r="1.4"/><circle cx="1374" cy="408" r="1.4"/><circle cx="1374" cy="454" r="1.4"/><circle cx="1374" cy="500" r="1.4"/><circle cx="1374" cy="546" r="1.4"/><circle cx="1374" cy="592" r="1.4"/><circle cx="1374" cy="638" r="1.4"/><circle cx="1374" cy="684" r="1.4"/><circle cx="1374" cy="730" r="1.4"/><circle cx="1374" cy="776" r="1.4"/><circle cx="1374" cy="822" r="1.4"/><circle cx="1374" cy="868" r="1.4"/><circle cx="1420" cy="40" r="1.4"/><circle cx="1420" cy="86" r="1.4"/><circle cx="1420" cy="132" r="1.4"/><circle cx="1420" cy="178" r="1.4"/><circle cx="1420" cy="224" r="1.4"/><circle cx="1420" cy="270" r="1.4"/><circle cx="1420" cy="316" r="1.4"/><circle cx="1420" cy="362" r="1.4"/><circle cx="1420" cy="408" r="1.4"/><circle cx="1420" cy="454" r="1.4"/><circle cx="1420" cy="500" r="1.4"/><circle cx="1420" cy="546" r="1.4"/><circle cx="1420" cy="592" r="1.4"/><circle cx="1420" cy="638" r="1.4"/><circle cx="1420" cy="684" r="1.4"/><circle cx="1420" cy="730" r="1.4"/><circle cx="1420" cy="776" r="1.4"/><circle cx="1420" cy="822" r="1.4"/><circle cx="1420" cy="868" r="1.4"/><circle cx="1466" cy="40" r="1.4"/><circle cx="1466" cy="86" r="1.4"/><circle cx="1466" cy="132" r="1.4"/><circle cx="1466" cy="178" r="1.4"/><circle cx="1466" cy="224" r="1.4"/><circle cx="1466" cy="270" r="1.4"/><circle cx="1466" cy="316" r="1.4"/><circle cx="1466" cy="362" r="1.4"/><circle cx="1466" cy="408" r="1.4"/><circle cx="1466" cy="454" r="1.4"/><circle cx="1466" cy="500" r="1.4"/><circle cx="1466" cy="546" r="1.4"/><circle cx="1466" cy="592" r="1.4"/><circle cx="1466" cy="638" r="1.4"/><circle cx="1466" cy="684" r="1.4"/><circle cx="1466" cy="730" r="1.4"/><circle cx="1466" cy="776" r="1.4"/><circle cx="1466" cy="822" r="1.4"/><circle cx="1466" cy="868" r="1.4"/><circle cx="1512" cy="40" r="1.4"/><circle cx="1512" cy="86" r="1.4"/><circle cx="1512" cy="132" r="1.4"/><circle cx="1512" cy="178" r="1.4"/><circle cx="1512" cy="224" r="1.4"/><circle cx="1512" cy="270" r="1.4"/><circle cx="1512" cy="316" r="1.4"/><circle cx="1512" cy="362" r="1.4"/><circle cx="1512" cy="408" r="1.4"/><circle cx="1512" cy="454" r="1.4"/><circle cx="1512" cy="500" r="1.4"/><circle cx="1512" cy="546" r="1.4"/><circle cx="1512" cy="592" r="1.4"/><circle cx="1512" cy="638" r="1.4"/><circle cx="1512" cy="684" r="1.4"/><circle cx="1512" cy="730" r="1.4"/><circle cx="1512" cy="776" r="1.4"/><circle cx="1512" cy="822" r="1.4"/><circle cx="1512" cy="868" r="1.4"/><circle cx="1558" cy="40" r="1.4"/><circle cx="1558" cy="86" r="1.4"/><circle cx="1558" cy="132" r="1.4"/><circle cx="1558" cy="178" r="1.4"/><circle cx="1558" cy="224" r="1.4"/><circle cx="1558" cy="270" r="1.4"/><circle cx="1558" cy="316" r="1.4"/><circle cx="1558" cy="362" r="1.4"/><circle cx="1558" cy="408" r="1.4"/><circle cx="1558" cy="454" r="1.4"/><circle cx="1558" cy="500" r="1.4"/><circle cx="1558" cy="546" r="1.4"/><circle cx="1558" cy="592" r="1.4"/><circle cx="1558" cy="638" r="1.4"/><circle cx="1558" cy="684" r="1.4"/><circle cx="1558" cy="730" r="1.4"/><circle cx="1558" cy="776" r="1.4"/><circle cx="1558" cy="822" r="1.4"/><circle cx="1558" cy="868" r="1.4"/></g><g stroke="#7cc4ff" stroke-width="1.3" opacity="0.28"><line x1="1050" y1="200" x2="1240" y2="150"/><line x1="1050" y1="200" x2="1180" y2="360"/><line x1="1240" y1="150" x2="1430" y2="250"/><line x1="1240" y1="150" x2="1180" y2="360"/><line x1="1430" y1="250" x2="1330" y2="400"/><line x1="1430" y1="250" x2="1480" y2="470"/><line x1="1330" y1="400" x2="1480" y2="470"/><line x1="1330" y1="400" x2="1180" y2="360"/><line x1="1330" y1="400" x2="1380" y2="600"/><line x1="1330" y1="400" x2="1230" y2="560"/><line x1="1480" y1="470" x2="1380" y2="600"/><line x1="1180" y1="360" x2="1230" y2="560"/><line x1="1380" y1="600" x2="1230" y2="560"/></g><g fill="#a5f3fc" opacity="0.85"><circle cx="1050" cy="200" r="5"/><circle cx="1050" cy="200" r="13" opacity="0.16"/><circle cx="1240" cy="150" r="5"/><circle cx="1240" cy="150" r="13" opacity="0.16"/><circle cx="1430" cy="250" r="5"/><circle cx="1430" cy="250" r="13" opacity="0.16"/><circle cx="1330" cy="400" r="5"/><circle cx="1330" cy="400" r="13" opacity="0.16"/><circle cx="1480" cy="470" r="5"/><circle cx="1480" cy="470" r="13" opacity="0.16"/><circle cx="1180" cy="360" r="5"/><circle cx="1180" cy="360" r="13" opacity="0.16"/><circle cx="1380" cy="600" r="5"/><circle cx="1380" cy="600" r="13" opacity="0.16"/><circle cx="1230" cy="560" r="5"/><circle cx="1230" cy="560" r="13" opacity="0.16"/></g><g stroke="#7cc4ff" fill="none" opacity="0.3" stroke-width="1.6"><circle cx="300" cy="600" r="270"/><ellipse cx="300" cy="600" rx="260.8" ry="270"/><ellipse cx="300" cy="600" rx="233.8" ry="270"/><ellipse cx="300" cy="600" rx="190.9" ry="270"/><ellipse cx="300" cy="600" rx="135.0" ry="270"/><ellipse cx="300" cy="600" rx="69.9" ry="270"/><line x1="300" y1="330" x2="300" y2="870"/><ellipse cx="300" cy="516.6" rx="256.8" ry="46.2"/><ellipse cx="300" cy="683.4" rx="256.8" ry="46.2"/><ellipse cx="300" cy="441.3" rx="218.4" ry="39.3"/><ellipse cx="300" cy="758.7" rx="218.4" ry="39.3"/><ellipse cx="300" cy="381.6" rx="158.7" ry="28.6"/><ellipse cx="300" cy="818.4" rx="158.7" ry="28.6"/><ellipse cx="300" cy="343.2" rx="83.4" ry="15.0"/><ellipse cx="300" cy="856.8" rx="83.4" ry="15.0"/><ellipse cx="300" cy="600" rx="270" ry="48.6"/></g><g fill="#a5f3fc"><circle cx="170" cy="520" r="4.5"/><circle cx="170" cy="520" r="11" fill="#a5f3fc" opacity="0.18"/><circle cx="420" cy="560" r="4.5"/><circle cx="420" cy="560" r="11" fill="#a5f3fc" opacity="0.18"/><circle cx="260" cy="760" r="4.5"/><circle cx="260" cy="760" r="11" fill="#a5f3fc" opacity="0.18"/><circle cx="400" cy="700" r="4.5"/><circle cx="400" cy="700" r="11" fill="#a5f3fc" opacity="0.18"/></g></svg>