<svg xmlns="http://www.w3.org/2000/svg" viewBox="0 0 1600 900" role="img" aria-label="Fintech background"><defs>
  <linearGradient id="bg" x1="0" y1="0" x2="1" y2="1">
    <stop offset="0" stop-color="#081127"/><stop offset="50%" stop-color="#0f2150"/><stop offset="100%" stop-color="#1e3a8a"/>
  </linearGradient>
  <radialGradient id="glow1" cx="50%" cy="50%" r="50%">
    <stop offset="0" stop-color="#38bdf8" stop-opacity="0.55"/><stop offset="100%" stop-color="#38bdf8" stop-opacity="0"/>
  </radialGradient>
  <radialGradient id="glow2" cx="50%" cy="50%" r="50%">
    <stop offset="0" stop-color="#2563eb" stop-opacity="0.5"/><stop offset="100%" stop-color="#2563eb" stop-opacity="0"/>
  </radialGradient>
  <linearGradient id="bar" x1="0" y1="1" x2="0" y2="0">
    <stop offset="0" stop-color="#38bdf8" stop-opacity="0.25"/><stop offset="1" stop-color="#a5f3fc" stop-opacity="0.9"/>
  </linearGradient>
  <linearGradient id="line" x1="0" y1="0" x2="1" y2="0">
    <stop offset="0" stop-color="#5fd0f7"/><stop offset="1" stop-color="#a5f3fc"/>
  </linearGradient>
</defs><rect width="1600" height="900" fill="url(#bg)"/><circle cx="1280" cy="170" r="520" fill="url(#glow1)"/><circle cx="120" cy="820" r="460" fill="url(#glow2)"/><g fill="#9fc3ff" opacity="0.10"><circle cx="40" cy="40" r="1.4"/><circle cx="40" cy="86" r="1.4"/><circle cx="40" cy="132" r="1.4"/><circle cx="40" cy="178" r="1.4"/><circle cx="40" cy="224" r="1.4"/><circle cx="40" cy="270" r="1.4"/><circle cx="40" cy="316" r="1.4"/><circle cx="40" cy="362" r="1.4"/><circle cx="40" cy="408" r="1.4"/><circle cx="40" cy="454" r="1.4"/><circle cx="40" cy="500" r="1.4"/><circle cx="40" cy="546" r="1.4"/><circle cx="40" cy="592" r="1.4"/><circle cx="40" cy="638" r="1.4"/><circle cx="40" cy="684" r="1.4"/><circle cx="40" cy="730" r="1.4"/><circle cx="40" cy="776" r="1.4"/><circle cx="40" cy="822" r="1.4"/><circle cx="40" cy="868" r="1.4"/><circle cx="86" cy="40" r="1.4"/><circle cx="86" cy="86" r="1.4"/><circle cx="86" cy="132" r="1.4"/><circle cx="86" cy="178" r="1.4"/><circle cx="86" cy="224" r="1.4"/><circle cx="86" cy="270" r="1.4"/><circle cx="86" cy="316" r="1.4"/><circle cx="86" cy="362" r="1.4"/><circle cx="86" cy="408" r="1.4"/><circle cx="86" cy="454" r="1.4"/><circle cx="86" cy="500" r="1.4"/><circle cx="86" cy="546" r="1.4"/><circle cx="86" cy="592" r="1.4"/><circle cx="86" cy="638" r="1.4"/><circle cx="86" cy="684" r="1.4"/><circle cx="86" cy="730" r="1.4"/><circle cx="86" cy="776" r="1.4"/><circle cx="86" cy="822" r="1.4"/><circle cx="86" cy="868" r="1.4"/><circle cx="132" cy="40" r="1.4"/><circle cx="132" cy="86" r="1.4"/><circle cx="132" cy="132" r="1.4"/><circle cx="132" cy="178" r="1.4"/><circle cx="132" cy="224" r="1.4"/><circle cx="132" cy="270" r="1.4"/><circle cx="132" cy="316" r="1.4"/><circle cx="132" cy="362" r="1.4"/><circle cx="132" cy="408" r="1.4"/><circle cx="132" cy="454" r="1.4"/><circle cx="132" cy="500" r="1.4"/><circle cx="132" cy="546" r="1.4"/><circle cx="132" cy="592" r="1.4"/><circle cx="132" cy="638" r="1.4"/><circle cx="132" cy="684" r="1.4"/><circle cx="132" cy="730" r="1.4"/><circle cx="132" cy="776" r="1.4"/><circle cx="132" cy="822" r="1.4"/><circle cx="132" cy="868" r="1.4"/><circle cx="178" cy="40" r="1.4"/><circle cx="178" cy="86" r="1.4"/><circle cx="178" cy="132" r="1.4"/><circle cx="178" cy="178" r="1.4"/><circle cx="178" cy="224" r="1.4"/><circle cx="178" cy="270" r="1.4"/><circle cx="178" cy="316" r="1.4"/><circle cx="178" cy="362" r="1.4"/><circle cx="178" cy="408" r="1.4"/><circle cx="178" cy="454" r="1.4"/><circle cx="178" cy="500" r="1.4"/><circle cx="178" cy="546" r="1.4"/><circle cx="178" cy="592" r="1.4"/><circle cx="178" cy="638" r="1.4"/><circle cx="178" cy="684" r="1.4"/><circle cx="178" cy="730" r="1.4"/><circle cx="178" cy="776" r="1.4"/><circle cx="178" cy="822" r="1.4"/><circle cx="178" cy="868" r="1.4"/><circle cx="224" cy="40" r="1.4"/><circle cx="224" cy="86" r="1.4"/><circle cx="224" cy="132" r="1.4"/><circle cx="224" cy="178" r="1.4"/><circle cx="224" cy="224" r="1.4"/><circle cx="224" cy="270" r="1.4"/><circle cx="224" cy="316" r="1.4"/><circle cx="224" cy="362" r="1.4"/><circle cx="224" cy="408" r="1.4"/><circle cx="224" cy="454" r="1.4"/><circle cx="224" cy="500" r="1.4"/><circle cx="224" cy="546" r="1.4"/><circle cx="224" cy="592" r="1.4"/><circle cx="224" cy="638" r="1.4"/><circle cx="224" cy="684" r="1.4"/><circle cx="224" cy="730" r="1.4"/><circle cx="224" cy="776" r="1.4"/><circle cx="224" cy="822" r="1.4"/><circle cx="224" cy="868" r="1.4"/><circle cx="270" cy="40" r="1.4"/><circle cx="270" cy="86" r="1.4"/><circle cx="270" cy="132" r="1.4"/><circle cx="270" cy="178" r="1.4"/><circle cx="270" cy="224" r="1.4"/><circle cx="270" cy="270" r="1.4"/><circle cx="270" cy="316" r="1.4"/><circle cx="270" cy="362" r="1.4"/><circle cx="270" cy="408" r="1.4"/><circle cx="270" cy="454" r="1.4"/><circle cx="270" cy="500" r="1.4"/><circle cx="270" cy="546" r="1.4"/><circle cx="270" cy="592" r="1.4"/><circle cx="270" cy="638" r="1.4"/><circle cx="270" cy="684" r="1.4"/><circle cx="270" cy="730" r="1.4"/><circle cx="270" cy="776" r="1.4"/><circle cx="270" cy="822" r="1.4"/><circle cx="270" cy="868" r="1.4"/><circle cx="316" cy="40" r="1.4"/><circle cx="316" cy="86" r="1.4"/><circle cx="316" cy="132" r="1.4"/><circle cx="316" cy="178" r="1.4"/><circle cx="316" cy="224" r="1.4"/><circle cx="316" cy="270" r="1.4"/><circle cx="316" cy="316" r="1.4"/><circle cx="316" cy="362" r="1.4"/><circle cx="316" cy="408" r="1.4"/><circle cx="316" cy="454" r="1.4"/><circle cx="316" cy="500" r="1.4"/><circle cx="316" cy="546" r="1.4"/><circle cx="316" cy="592" r="1.4"/><circle cx="316" cy="638" r="1.4"/><circle cx="316" cy="684" r="1.4"/><circle cx="316" cy="730" r="1.4"/><circle cx="316" cy="776" r="1.4"/><circle cx="316" cy="822" r="1.4"/><circle cx="316" cy="868" r="1.4"/><circle cx="362" cy="40" r="1.4"/><circle cx="362" cy="86" r="1.4"/><circle cx="362" cy="132" r="1.4"/><circle cx="362" cy="178" r="1.4"/><circle cx="362" cy="224" r="1.4"/><circle cx="362" cy="270" r="1.4"/><circle cx="362" cy="316" r="1.4"/><circle cx="362" cy="362" r="1.4"/><circle cx="362" cy="408" r="1.4"/><circle cx="362" cy="454" r="1.4"/><circle cx="362" cy="500" r="1.4"/><circle cx="362" cy="546" r="1.4"/><circle cx="362" cy="592" r="1.4"/><circle cx="362" cy="638" r="1.4"/><circle cx="362" cy="684" r="1.4"/><circle cx="362" cy="730" r="1.4"/><circle cx="362" cy="776" r="1.4"/><circle cx="362" cy="822" r="1.4"/><circle cx="362" cy="868" r="1.4"/><circle cx="408" cy="40" r="1.4"/><circle cx="408" cy="86" r="1.4"/><circle cx="408" cy="132" r="1.4"/><circle cx="408" cy="178" r="1.4"/><circle cx="408" cy="224" r="1.4"/><circle cx="408" cy="270" r="1.4"/><circle cx="408" cy="316" r="1.4"/><circle cx="408" cy="362" r="1.4"/><circle cx="408" cy="408" r="1.4"/><circle cx="408" cy="454" r="1.4"/><circle cx="408" cy="500" r="1.4"/><circle cx="408" cy="546" r="1.4"/><circle cx="408" cy="592" r="1.4"/><circle cx="408" cy="638" r="1.4"/><circle cx="408" cy="684" r="1.4"/><circle cx="408" cy="730" r="1.4"/><circle cx="408" cy="776" r="1.4"/><circle cx="408" cy="822" r="1.4"/><circle cx="408" cy="868" r="1.4"/><circle cx="454" cy="40" r="1.4"/><circle cx="454" cy="86" r="1.4"/><circle cx="454" cy="132" r="1.4"/><circle cx="454" cy="178" r="1.4"/><circle cx="454" cy="224" r="1.4"/><circle cx="454" cy="270" r="1.4"/><circle cx="454" cy="316" r="1.4"/><circle cx="454" cy="362" r="1.4"/><circle cx="454" cy="408" r="1.4"/><circle cx="454" cy="454" r="1.4"/><circle cx="454" cy="500" r="1.4"/><circle cx="454" cy="546" r="1.4"/><circle cx="454" cy="592" r="1.4"/><circle cx="454" cy="638" r="1.4"/><circle cx="454" cy="684" r="1.4"/><circle cx="454" cy="730" r="1.4"/><circle cx="454" cy="776" r="1.4"/><circle cx="454" cy="822" r="1.4"/><circle cx="454" cy="868" r="1.4"/><circle cx="500" cy="40" r="1.4"/><circle cx="500" cy="86" r="1.4"/><circle cx="500" cy="132" r="1.4"/><circle cx="500" cy="178" r="1.4"/><circle cx="500" cy="224" r="1.4"/><circle cx="500" cy="270" r="1.4"/><circle cx="500" cy="316" r="1.4"/><circle cx="500" cy="362" r="1.4"/><circle cx="500" cy="408" r="1.4"/><circle cx="500" cy="454" r="1.4"/><circle cx="500" cy="500" r="1.4"/><circle cx="500" cy="546" r="1.4"/><circle cx="500" cy="592" r="1.4"/><circle cx="500" cy="638" r="1.4"/><circle cx="500" cy="684" r="1.4"/><circle cx="500" cy="730" r="1.4"/><circle cx="500" cy="776" r="1.4"/><circle cx="500" cy="822" r="1.4"/><circle cx="500" cy="868" r="1.4"/><circle cx="546" cy="40" r="1.4"/><circle cx="546" cy="86" r="1.4"/><circle cx="546" cy="132" r="1.4"/><circle cx="546" cy="178" r="1.4"/><circle cx="546" cy="224" r="1.4"/><circle cx="546" cy="270" r="1.4"/><circle cx="546" cy="316" r="1.4"/><circle cx="546" cy="362" r="1.4"/><circle cx="546" cy="408" r="1.4"/><circle cx="546" cy="454" r="1.4"/><circle cx="546" cy="500" r="1.4"/><circle cx="546" cy="546" r="1.4"/><circle cx="546" cy="592" r="1.4"/><circle cx="546" cy="638" r="1.4"/><circle cx="546" cy="684" r="1.4"/><circle cx="546" cy="730" r="1.4"/><circle cx="546" cy="776" r="1.4"/><circle cx="546" cy="822" r="1.4"/><circle cx="546" cy="868" r="1.4"/><circle cx="592" cy="40" r="1.4"/><circle cx="592" cy="86" r="1.4"/><circle cx="592" cy="132" r="1.4"/><circle cx="592" cy="178" r="1.4"/><circle cx="592" cy="224" r="1.4"/><circle cx="592" cy="270" r="1.4"/><circle cx="592" cy="316" r="1.4"/><circle cx="592" cy="362" r="1.4"/><circle cx="592" cy="408" r="1.4"/><circle cx="592" cy="454" r="1.4"/><circle cx="592" cy="500" r="1.4"/><circle cx="592" cy="546" r="1.4"/><circle cx="592" cy="592" r="1.4"/><circle cx="592" cy="638" r="1.4"/><circle cx="592" cy="684" r="1.4"/><circle cx="592" cy="730" r="1.4"/><circle cx="592" cy="776" r="1.4"/><circle cx="592" cy="822" r="1.4"/><circle cx="592" cy="868" r="1.4"/><circle cx="638" cy="40" r="1.4"/><circle cx="638" cy="86" r="1.4"/><circle cx="638" cy="132" r="1.4"/><circle cx="638" cy="178" r="1.4"/><circle cx="638" cy="224" r="1.4"/><circle cx="638" cy="270" r="1.4"/><circle cx="638" cy="316" r="1.4"/><circle cx="638" cy="362" r="1.4"/><circle cx="638" cy="408" r="1.4"/><circle cx="638" cy="454" r="1.4"/><circle cx="638" cy="500" r="1.4"/><circle cx="638" cy="546" r="1.4"/><circle cx="638" cy="592" r="1.4"/><circle cx="638" cy="638" r="1.4"/><circle cx="638" cy="684" r="1.4"/><circle cx="638" cy="730" r="1.4"/><circle cx="638" cy="776" r="1.4"/><circle cx="638" cy="822" r="1.4"/><circle cx="638" cy="868" r="1.4"/><circle cx="684" cy="40" r="1.4"/><circle cx="684" cy="86" r="1.4"/><circle cx="684" cy="132" r="1.4"/><circle cx="684" cy="178" r="1.4"/><circle cx="684" cy="224" r="1.4"/><circle cx="684" cy="270" r="1.4"/><circle cx="684" cy="316" r="1.4"/><circle cx="684" cy="362" r="1.4"/><circle cx="684" cy="408" r="1.4"/><circle cx="684" cy="454" r="1.4"/><circle cx="684" cy="500" r="1.4"/><circle cx="684" cy="546" r="1.4"/><circle cx="684" cy="592" r="1.4"/><circle cx="684" cy="638" r="1.4"/><circle cx="684" cy="684" r="1.4"/><circle cx="684" cy="730" r="1.4"/><circle cx="684" cy="776" r="1.4"/><circle cx="684" cy="822" r="1.4"/><circle cx="684" cy="868" r="1.4"/><circle cx="730" cy="40" r="1.4"/><circle cx="730" cy="86" r="1.4"/><circle cx="730" cy="132" r="1.4"/><circle cx="730" cy="178" r="1.4"/><circle cx="730" cy="224" r="1.4"/><circle cx="730" cy="270" r="1.4"/><circle cx="730" cy="316" r="1.4"/><circle cx="730" cy="362" r="1.4"/><circle cx="730" cy="408" r="1.4"/><circle cx="730" cy="454" r="1.4"/><circle cx="730" cy="500" r="1.4"/><circle cx="730" cy="546" r="1.4"/><circle cx="730" cy="592" r="1.4"/><circle cx="730" cy="638" r="1.4"/><circle cx="730" cy="684" r="1.4"/><circle cx="730" cy="730" r="1.4"/><circle cx="730" cy="776" r="1.4"/><circle cx="730" cy="822" r="1.4"/><circle cx="730" cy="868" r="1.4"/><circle cx="776" cy="40" r="1.4"/><circle cx="776" cy="86" r="1.4"/><circle cx="776" cy="132" r="1.4"/><circle cx="776" cy="178" r="1.4"/><circle cx="776" cy="224" r="1.4"/><circle cx="776" cy="270" r="1.4"/><circle cx="776" cy="316" r="1.4"/><circle cx="776" cy="362" r="1.4"/><circle cx="776" cy="408" r="1.4"/><circle cx="776" cy="454" r="1.4"/><circle cx="776" cy="500" r="1.4"/><circle cx="776" cy="546" r="1.4"/><circle cx="776" cy="592" r="1.4"/><circle cx="776" cy="638" r="1.4"/><circle cx="776" cy="684" r="1.4"/><circle cx="776" cy="730" r="1.4"/><circle cx="776" cy="776" r="1.4"/><circle cx="776" cy="822" r="1.4"/><circle cx="776" cy="868" r="1.4"/><circle cx="822" cy="40" r="1.4"/><circle cx="822" cy="86" r="1.4"/><circle cx="822" cy="132" r="1.4"/><circle cx="822" cy="178" r="1.4"/><circle cx="822" cy="224" r="1.4"/><circle cx="822" cy="270" r="1.4"/><circle cx="822" cy="316" r="1.4"/><circle cx="822" cy="362" r="1.4"/><circle cx="822" cy="408" r="1.4"/><circle cx="822" cy="454" r="1.4"/><circle cx="822" cy="500" r="1.4"/><circle cx="822" cy="546" r="1.4"/><circle cx="822" cy="592" r="1.4"/><circle cx="822" cy="638" r="1.4"/><circle cx="822" cy="684" r="1.4"/><circle cx="822" cy="730" r="1.4"/><circle cx="822" cy="776" r="1.4"/><circle cx="822" cy="822" r="1.4"/><circle cx="822" cy="868" r="1.4"/><circle cx="868" cy="40" r="1.4"/><circle cx="868" cy="86" r="1.4"/><circle cx="868" cy="132" r="1.4"/><circle cx="868" cy="178" r="1.4"/><circle cx="868" cy="224" r="1.4"/><circle cx="868" cy="270" r="1.4"/><circle cx="868" cy="316" r="1.4"/><circle cx="868" cy="362" r="1.4"/><circle cx="868" cy="408" r="1.4"/><circle cx="868" cy="454" r="1.4"/><circle cx="868" cy="500" r="1.4"/><circle cx="868" cy="546" r="1.4"/><circle cx="868" cy="592" r="1.4"/><circle cx="868" cy="638" r="1.4"/><circle cx="868" cy="684" r="1.4"/><circle cx="868" cy="730" r="1.4"/><circle cx="868" cy="776" r="1.4"/><circle cx="868" cy="822" r="1.4"/><circle cx="868" cy="868" r="1.4"/><circle cx="914" cy="40" r="1.4"/><circle cx="914" cy="86" r="1.4"/><circle cx="914" cy="132" r="1.4"/><circle cx="914" cy="178" r="1.4"/><circle cx="914" cy="224" r="1.4"/><circle cx="914" cy="270" r="1.4"/><circle cx="914" cy="316" r="1.4"/><circle cx="914" cy="362" r="1.4"/><circle cx="914" cy="408" r="1.4"/><circle cx="914" cy="454" r="1.4"/><circle cx="914" cy="500" r="1.4"/><circle cx="914" cy="546" r="1.4"/><circle cx="914" cy="592" r="1.4"/><circle cx="914" cy="638" r="1.4"/><circle cx="914" cy="684" r="1.4"/><circle cx="914" cy="730" r="1.4"/><circle cx="914" cy="776" r="1.4"/><circle cx="914" cy="822" r="1.4"/><circle cx="914" cy="868" r="1.4"/><circle cx="960" cy="40" r="1.4"/><circle cx="960" cy="86" r="1.4"/><circle cx="960" cy="132" r="1.4"/><circle cx="960" cy="178" r="1.4"/><circle cx="960" cy="224" r="1.4"/><circle cx="960" cy="270" r="1.4"/><circle cx="960" cy="316" r="1.4"/><circle cx="960" cy="362" r="1.4"/><circle cx="960" cy="408" r="1.4"/><circle cx="960" cy="454" r="1.4"/><circle cx="960" cy="500" r="1.4"/><circle cx="960" cy="546" r="1.4"/><circle cx="960" cy="592" r="1.4"/><circle cx="960" cy="638" r="1.4"/><circle cx="960" cy="684" r="1.4"/><circle cx="960" cy="730" r="1.4"/><circle cx="960" cy="776" r="1.4"/><circle cx="960" cy="822" r="1.4"/><circle cx="960" cy="868" r="1.4"/><circle cx="1006" cy="40" r="1.4"/><circle cx="1006" cy="86" r="1.4"/><circle cx="1006" cy="132" r="1.4"/><circle cx="1006" cy="178" r="1.4"/><circle cx="1006" cy="224" r="1.4"/><circle cx="1006" cy="270" r="1.4"/><circle cx="1006" cy="316" r="1.4"/><circle cx="1006" cy="362" r="1.4"/><circle cx="1006" cy="408" r="1.4"/><circle cx="1006" cy="454" r="1.4"/><circle cx="1006" cy="500" r="1.4"/><circle cx="1006" cy="546" r="1.4"/><circle cx="1006" cy="592" r="1.4"/><circle cx="1006" cy="638" r="1.4"/><circle cx="1006" cy="684" r="1.4"/><circle cx="1006" cy="730" r="1.4"/><circle cx="1006" cy="776" r="1.4"/><circle cx="1006" cy="822" r="1.4"/><circle cx="1006" cy="868" r="1.4"/><circle cx="1052" cy="40" r="1.4"/><circle cx="1052" cy="86" r="1.4"/><circle cx="1052" cy="132" r="1.4"/><circle cx="1052" cy="178" r="1.4"/><circle cx="1052" cy="224" r="1.4"/><circle cx="1052" cy="270" r="1.4"/><circle cx="1052" cy="316" r="1.4"/><circle cx="1052" cy="362" r="1.4"/><circle cx="1052" cy="408" r="1.4"/><circle cx="1052" cy="454" r="1.4"/><circle cx="1052" cy="500" r="1.4"/><circle cx="1052" cy="546" r="1.4"/><circle cx="1052" cy="592" r="1.4"/><circle cx="1052" cy="638" r="1.4"/><circle cx="1052" cy="684" r="1.4"/><circle cx="1052" cy="730" r="1.4"/><circle cx="1052" cy="776" r="1.4"/><circle cx="1052" cy="822" r="1.4"/><circle cx="1052" cy="868" r="1.4"/><circle cx="1098" cy="40" r="1.4"/><circle cx="1098" cy="86" r="1.4"/><circle cx="1098" cy="132" r="1.4"/><circle cx="1098" cy="178" r="1.4"/><circle cx="1098" cy="224" r="1.4"/><circle cx="1098" cy="270" r="1.4"/><circle cx="1098" cy="316" r="1.4"/><circle cx="1098" cy="362" r="1.4"/><circle cx="1098" cy="408" r="1.4"/><circle cx="1098" cy="454" r="1.4"/><circle cx="1098" cy="500" r="1.4"/><circle cx="1098" cy="546" r="1.4"/><circle cx="1098" cy="592" r="1.4"/><circle cx="1098" cy="638" r="1.4"/><circle cx="1098" cy="684" r="1.4"/><circle cx="1098" cy="730" r="1.4"/><circle cx="1098" cy="776" r="1.4"/><circle cx="1098" cy="822" r="1.4"/><circle cx="1098" cy="868" r="1.4"/><circle cx="1144" cy="40" r="1.4"/><circle cx="1144" cy="86" r="1.4"/><circle cx="1144" cy="132" r="1.4"/><circle cx="1144" cy="178" r="1.4"/><circle cx="1144" cy="224" r="1.4"/><circle cx="1144" cy="270" r="1.4"/><circle cx="1144" cy="316" r="1.4"/><circle cx="1144" cy="362" r="1.4"/><circle cx="1144" cy="408" r="1.4"/><circle cx="1144" cy="454" r="1.4"/><circle cx="1144" cy="500" r="1.4"/><circle cx="1144" cy="546" r="1.4"/><circle cx="1144" cy="592" r="1.4"/><circle cx="1144" cy="638" r="1.4"/><circle cx="1144" cy="684" r="1.4"/><circle cx="1144" cy="730" r="1.4"/><circle cx="1144" cy="776" r="1.4"/><circle cx="1144" cy="822" r="1.4"/><circle cx="1144" cy="868" r="1.4"/><circle cx="1190" cy="40" r="1.4"/><circle cx="1190" cy="86" r="1.4"/><circle cx="1190" cy="132" r="1.4"/><circle cx="1190" cy="178" r="1.4"/><circle cx="1190" cy="224" r="1.4"/><circle cx="1190" cy="270" r="1.4"/><circle cx="1190" cy="316" r="1.4"/><circle cx="1190" cy="362" r="1.4"/><circle cx="1190" cy="408" r="1.4"/><circle cx="1190" cy="454" r="1.4"/><circle cx="1190" cy="500" r="1.4"/><circle cx="1190" cy="546" r="1.4"/><circle cx="1190" cy="592" r="1.4"/><circle cx="1190" cy="638" r="1.4"/><circle cx="1190" cy="684" r="1.4"/><circle cx="1190" cy="730" r="1.4"/><circle cx="1190" cy="776" r="1.4"/><circle cx="1190" cy="822" r="1.4"/><circle cx="1190" cy="868" r="1.4"/><circle cx="1236" cy="40" r="1.4"/><circle cx="1236" cy="86" r="1.4"/><circle cx="1236" cy="132" r="1.4"/><circle cx="1236" cy="178" r="1.4"/><circle cx="1236" cy="224" r="1.4"/><circle cx="1236" cy="270" r="1.4"/><circle cx="1236" cy="316" r="1.4"/><circle cx="1236" cy="362" r="1.4"/><circle cx="1236" cy="408" r="1.4"/><circle cx="1236" cy="454" r="1.4"/><circle cx="1236" cy="500" r="1.4"/><circle cx="1236" cy="546" r="1.4"/><circle cx="1236" cy="592" r="1.4"/><circle cx="1236" cy="638" r="1.4"/><circle cx="1236" cy="684" r="1.4"/><circle cx="1236" cy="730" r="1.4"/><circle cx="1236" cy="776" r="1.4"/><circle cx="1236" cy="822" r="1.4"/><circle cx="1236" cy="868" r="1.4"/><circle cx="1282" cy="40" r="1.4"/><circle cx="1282" cy="86" r="1.4"/><circle cx="1282" cy="132" r="1.4"/><circle cx="1282" cy="178" r="1.4"/><circle cx="1282" cy="224" r="1.4"/><circle cx="1282" cy="270" r="1.4"/><circle cx="1282" cy="316" r="1.4"/><circle cx="1282" cy="362" r="1.4"/><circle cx="1282" cy="408" r="1.4"/><circle cx="1282" cy="454" r="1.4"/><circle cx="1282" cy="500" r="1.4"/><circle cx="1282" cy="546" r="1.4"/><circle cx="1282" cy="592" r="1.4"/><circle cx="1282" cy="638" r="1.4"/><circle cx="1282" cy="684" r="1.4"/><circle cx="1282" cy="730" r="1.4"/><circle cx="1282" cy="776" r="1.4"/><circle cx="1282" cy="822" r="1.4"/><circle cx="1282" cy="868" r="1.4"/><circle cx="1328" cy="40" r="1.4"/><circle cx="1328" cy="86" r="1.4"/><circle cx="1328" cy="132" r="1.4"/><circle cx="1328" cy="178" r="1.4"/><circle cx="1328" cy="224" r="1.4"/><circle cx="1328" cy="270" r="1.4"/><circle cx="1328" cy="316" r="1.4"/><circle cx="1328" cy="362" r="1.4"/><circle cx="1328" cy="408" r="1.4"/><circle cx="1328" cy="454" r="1.4"/><circle cx="1328" cy="500" r="1.4"/><circle cx="1328" cy="546" r="1.4"/><circle cx="1328" cy="592" r="1.4"/><circle cx="1328" cy="638" r="1.4"/><circle cx="1328" cy="684" r="1.4"/><circle cx="1328" cy="730" r="1.4"/><circle cx="1328" cy="776" r="1.4"/><circle cx="1328" cy="822" r="1.4"/><circle cx="1328" cy="868" r="1.4"/><circle cx="1374" cy="40" r="1.4"/><circle cx="1374" cy="86" r="1.4"/><circle cx="1374" cy="132" r="1.4"/><circle cx="1374" cy="178" r="1.4"/><circle cx="1374" cy="224" r="1.4"/><circle cx="1374" cy="270" r="1.4"/><circle cx="1374" cy="316" r="1.4"/><circle cx="1374" cy="362" r="1.4"/><circle cx="1374" cy="408" r="1.4"/><circle cx="1374" cy="454" r="1.4"/><circle cx="1374" cy="500" r="1.4"/><circle cx="1374" cy="546" r="1.4"/><circle cx="1374" cy="592" r="1.4"/><circle cx="1374" cy="638" r="1.4"/><circle cx="1374" cy="684" r="1.4"/><circle cx="1374" cy="730" r="1.4"/><circle cx="1374" cy="776" r="1.4"/><circle cx="1374" cy="822" r="1.4"/><circle cx="1374" cy="868" r="1.4"/><circle cx="1420" cy="40" r="1.4"/><circle cx="1420" cy="86" r="1.4"/><circle cx="1420" cy="132" r="1.4"/><circle cx="1420" cy="178" r="1.4"/><circle cx="1420" cy="224" r="1.4"/><circle cx="1420" cy="270" r="1.4"/><circle cx="1420" cy="316" r="1.4"/><circle cx="1420" cy="362" r="1.4"/><circle cx="1420" cy="408" r="1.4"/><circle cx="1420" cy="454" r="1.4"/><circle cx="1420" cy="500" r="1.4"/><circle cx="1420" cy="546" r="1.4"/><circle cx="1420" cy="592" r="1.4"/><circle cx="1420" cy="638" r="1.4"/><circle cx="1420" cy="684" r="1.4"/><circle cx="1420" cy="730" r="1.4"/><circle cx="1420" cy="776" r="1.4"/><circle cx="1420" cy="822" r="1.4"/><circle cx="1420" cy="868" r="1.4"/><circle cx="1466" cy="40" r="1.4"/><circle cx="1466" cy="86" r="1.4"/><circle cx="1466" cy="132" r="1.4"/><circle cx="1466" cy="178" r="1.4"/><circle cx="1466" cy="224" r="1.4"/><circle cx="1466" cy="270" r="1.4"/><circle cx="1466" cy="316" r="1.4"/><circle cx="1466" cy="362" r="1.4"/><circle cx="1466" cy="408" r="1.4"/><circle cx="1466" cy="454" r="1.4"/><circle cx="1466" cy="500" r="1.4"/><circle cx="1466" cy="546" r="1.4"/><circle cx="1466" cy="592" r="1.4"/><circle cx="1466" cy="638" r="1.4"/><circle cx="1466" cy="684" r="1.4"/><circle cx="1466" cy="730" r="1.4"/><circle cx="1466" cy="776" r="1.4"/><circle cx="1466" cy="822" r="1.4"/><circle cx="1466" cy="868" r="1.4"/><circle cx="1512" cy="40" r="1.4"/><circle cx="1512" cy="86" r="1.4"/><circle cx="1512" cy="132" r="1.4"/><circle cx="1512" cy="178" r="1.4"/><circle cx="1512" cy="224" r="1.4"/><circle cx="1512" cy="270" r="1.4"/><circle cx="1512" cy="316" r="1.4"/><circle cx="1512" cy="362" r="1.4"/><circle cx="1512" cy="408" r="1.4"/><circle cx="1512" cy="454" r="1.4"/><circle cx="1512" cy="500" r="1.4"/><circle cx="1512" cy="546" r="1.4"/><circle cx="1512" cy="592" r="1.4"/><circle cx="1512" cy="638" r="1.4"/><circle cx="1512" cy="684" r="1.4"/><circle cx="1512" cy="730" r="1.4"/><circle cx="1512" cy="776" r="1.4"/><circle cx="1512" cy="822" r="1.4"/><circle cx="1512" cy="868" r="1.4"/><circle cx="1558" cy="40" r="1.4"/><circle cx="1558" cy="86" r="1.4"/><circle cx="1558" cy="132" r="1.4"/><circle cx="1558" cy="178" r="1.4"/><circle cx="1558" cy="224" r="1.4"/><circle cx="1558" cy="270" r="1.4"/><circle cx="1558" cy="316" r="1.4"/><circle cx="1558" cy="362" r="1.4"/><circle cx="1558" cy="408" r="1.4"/><circle cx="1558" cy="454" r="1.4"/><circle cx="1558" cy="500" r="1.4"/><circle cx="1558" cy="546" r="1.4"/><circle cx="1558" cy="592" r="1.4"/><circle cx="1558" cy="638" r="1.4"/><circle cx="1558" cy="684" r="1.4"/><circle cx="1558" cy="730" r="1.4"/><circle cx="1558" cy="776" r="1.4"/><circle cx="1558" cy="822" r="1.4"/><circle cx="1558" cy="868" r="1.4"/></g><g stroke="#7cc4ff" fill="none" opacity="0.35" stroke-width="1.6"><circle cx="1230" cy="430" r="300" opacity="0.5"/><ellipse cx="1230" cy="430" rx="289.8" ry="300"/><ellipse cx="1230" cy="430" rx="259.8" ry="300"/><ellipse cx="1230" cy="430" rx="212.1" ry="300"/><ellipse cx="1230" cy="430" rx="150.0" ry="300"/><ellipse cx="1230" cy="430" rx="77.6" ry="300"/><line x1="1230" y1="130" x2="1230" y2="730"/><ellipse cx="1230" cy="337.3" rx="285.3" ry="51.4"/><ellipse cx="1230" cy="522.7" rx="285.3" ry="51.4"/><ellipse cx="1230" cy="253.7" rx="242.7" ry="43.7"/><ellipse cx="1230" cy="606.3" rx="242.7" ry="43.7"/><ellipse cx="1230" cy="187.3" rx="176.3" ry="31.7"/><ellipse cx="1230" cy="672.7" rx="176.3" ry="31.7"/><ellipse cx="1230" cy="144.7" rx="92.7" ry="16.7"/><ellipse cx="1230" cy="715.3" rx="92.7" ry="16.7"/><ellipse cx="1230" cy="430" rx="300" ry="54.0"/></g><g fill="#a5f3fc"><circle cx="1130" cy="250" r="4.5"/><circle cx="1130" cy="250" r="11" fill="#a5f3fc" opacity="0.18"/><circle cx="1360" cy="330" r="4.5"/><circle cx="1360" cy="330" r="11" fill="#a5f3fc" opacity="0.18"/><circle cx="1180" cy="560" r="4.5"/><circle cx="1180" cy="560" r="11" fill="#a5f3fc" opacity="0.18"/><circle cx="1330" cy="520" r="4.5"/><circle cx="1330" cy="520" r="11" fill="#a5f3fc" opacity="0.18"/><circle cx="1430" cy="420" r="4.5"/><circle cx="1430" cy="420" r="11" fill="#a5f3fc" opacity="0.18"/><circle cx="1080" cy="430" r="4.5"/><circle cx="1080" cy="430" r="11" fill="#a5f3fc" opacity="0.18"/></g><g><rect x="120" y="590" width="66" height="150" rx="9" fill="url(#bar)" opacity="0.85"/><rect x="240" y="510" width="66" height="230" rx="9" fill="url(#bar)" opacity="0.85"/><rect x="360" y="410" width="66" height="330" rx="9" fill="url(#bar)" opacity="0.85"/><rect x="480" y="440" width="66" height="300" rx="9" fill="url(#bar)" opacity="0.85"/><rect x="600" y="300" width="66" height="440" rx="9" fill="url(#bar)" opacity="0.85"/><rect x="720" y="180" width="66" height="560" rx="9" fill="url(#bar)" opacity="0.85"/></g><path d="M 153 572 L 273 492 L 393 392 L 513 422 L 633 282 L 753 162" fill="none" stroke="url(#line)" stroke-width="6" stroke-linecap="round" stroke-linejoin="round"/><circle cx="153" cy="572" r="7" fill="#ffffff"/><circle cx="153" cy="572" r="14" fill="#5fd0f7" opacity="0.25"/><circle cx="273" cy="492" r="7" fill="#ffffff"/><circle cx="273" cy="492" r="14" fill="#5fd0f7" opacity="0.25"/><circle cx="393" cy="392" r="7" fill="#ffffff"/><circle cx="393" cy="392" r="14" fill="#5fd0f7" opacity="0.25"/><circle cx="513" cy="422" r="7" fill="#ffffff"/><circle cx="513" cy="422" r="14" fill="#5fd0f7" opacity="0.25"/><circle cx="633" cy="282" r="7" fill="#ffffff"/><circle cx="633" cy="282" r="14" fill="#5fd0f7" opacity="0.25"/><circle cx="753" cy="162" r="7" fill="#ffffff"/><circle cx="753" cy="162" r="14" fill="#5fd0f7" opacity="0.25"/><path d="M 751.0 162 l 34 -34 l 4 30 l 30 4 z" fill="#a5f3fc"/></svg>